<?xml version="1.0" encoding="UTF-8"?>
<svg width="115px" height="105px" viewBox="0 0 115 105" version="1.1" xmlns="http://www.w3.org/2000/svg" xmlns:xlink="http://www.w3.org/1999/xlink">
    <title>Group 13@3x</title>
    <g id="Page-1" stroke="none" stroke-width="1" fill="none" fill-rule="evenodd" stroke-linecap="round" stroke-linejoin="round">
        <g id="Transcend-II" transform="translate(-489.000000, -2940.000000)" stroke="#02E2D1" stroke-width="3.6">
            <g id="Group-13" transform="translate(491.000000, 2942.000000)">
                <path d="M77.1706581,63.6660714 C77.1706581,75.3202991 67.4685239,84.7678571 55.5,84.7678571 C43.5314761,84.7678571 33.8293419,75.3202991 33.8293419,63.6660714 C33.8293419,45.8107143 50.4990442,34.4482143 55.5,19.8392857 C60.5009558,34.4482143 77.1706581,47.4339286 77.1706581,63.6660714 Z" id="Stroke-1"></path>
                <polyline id="Stroke-3" points="96.5727594 59.1279701 104.259071 50.5001353 111 59.8832156"></polyline>
                <path d="M104.258981,52.3035714 C104.258981,79.1979777 82.4285015,101 55.5,101 C31.6577614,101 11.8254975,83.9052991 7.58933534,61.3214286" id="Stroke-5"></path>
                <polyline id="Stroke-7" points="14.4272406 41.872075 6.74092907 50.4999098 -1.6039509e-15 41.1168295"></polyline>
                <path d="M6.74101937,48.6964286 C6.74101937,21.8020223 28.5714985,0 55.5,0 C79.3422386,0 99.1745025,17.0951518 103.410665,39.6785714" id="Stroke-9"></path>
                <path d="M68.1412172,64.9285714 C68.1412172,70.9051562 62.4815637,75.75 55.5,75.75" id="Stroke-11"></path>
            </g>
        </g>
    </g>
</svg>