<?xml version="1.0" encoding="UTF-8"?>
<svg width="98px" height="102px" viewBox="0 0 98 102" version="1.1" xmlns="http://www.w3.org/2000/svg" xmlns:xlink="http://www.w3.org/1999/xlink">
    <title>Group 9 Copy@3x</title>
    <g id="Page-1" stroke="none" stroke-width="1" fill="none" fill-rule="evenodd" stroke-linecap="round" stroke-linejoin="round">
        <g id="Transcend-II" transform="translate(-1193.000000, -2942.000000)" stroke="#02E2D1" stroke-width="3.6">
            <g id="Group-9-Copy" transform="translate(1195.000000, 2944.000000)">
                <path d="M46.098582,98 C46.098582,98 34.6049547,69.2742911 50.8306158,51.3207231" id="Stroke-1"></path>
                <path d="M41.7902634,81.8417888 C41.7902634,81.8417888 21.9588999,76.4557183 30.9992973,56.7067935 C37.6878754,42.0952822 56.4109361,36.9578687 58.4950321,29.7764414 C61.8194898,33.367155 77.8472879,78.2510752 49.0016683,81.8417888" id="Stroke-3"></path>
                <path d="M46.098582,98 L80.3527553,98 C81.3483799,98 82.1556065,97.196129 82.1556065,96.2046432 L82.1556065,45.9346527 L92.1934314,45.9346527 C93.7993212,45.9346527 94.6038435,44.0015022 93.4689487,42.8704275 L48.1493253,0.526488383 C47.4453119,-0.175496128 46.3032056,-0.175496128 45.5987415,0.526488383 L0.531066542,42.8704275 C-0.603828305,44.0015022 0.200694055,45.9346527 1.80613307,45.9346527 L11.8444087,45.9346527 L11.8444087,96.2046432 C11.8444087,97.196129 12.6516353,98 13.6472599,98 L36.0571514,98" id="Stroke-5"></path>
                <polyline id="Stroke-7" points="65.9299455 8.23215979 65.9299455 1.05073257 78.5499041 1.05073257 78.5499041 27.9810846"></polyline>
            </g>
        </g>
    </g>
</svg>