<?xml version="1.0" encoding="UTF-8"?>
<svg width="74px" height="108px" viewBox="0 0 74 108" version="1.1" xmlns="http://www.w3.org/2000/svg" xmlns:xlink="http://www.w3.org/1999/xlink">
    <title>Group 17@3x</title>
    <g id="Page-1" stroke="none" stroke-width="1" fill="none" fill-rule="evenodd" stroke-linecap="round" stroke-linejoin="round">
        <g id="Transcend-II" transform="translate(-163.000000, -2939.000000)" stroke="#02E2D1" stroke-width="3.6">
            <g id="Group-17" transform="translate(165.000000, 2941.000000)">
                <path d="M17.0512821,75.3103448 C17.0512821,57.3793103 0,57.3793103 0,34.9655172 C0,15.6546897 15.6701282,0 35,0" id="Stroke-1"></path>
                <path d="M52.9487179,75.3103448 C52.9487179,57.3793103 70,57.3793103 70,34.9655172 C70,15.6546897 54.3298718,0 35,0" id="Stroke-3"></path>
                <path d="M32.9075385,75.3103448 C32.9075385,75.3103448 23.7177949,52 39.871641,34.0689655" id="Stroke-5"></path>
                <path d="M29.3177949,64.5517241 C29.3177949,64.5517241 12.9485641,55.5862069 20.1280513,39.4482759 C26.6479231,24.7927931 47.5020897,19.7241379 47.5020897,12.5517241 C49.2969615,14.3448276 66.7947179,57.3793103 39.871641,62.7586207" id="Stroke-7"></path>
                <path d="M17.0512821,75.3103448 L17.0512821,95.0344828 C17.0512821,98.6206897 26.025641,104 35,104" id="Stroke-9"></path>
                <path d="M52.9487179,75.3103448 L52.9487179,95.0344828 C52.9487179,98.6206897 43.974359,104 35,104" id="Stroke-11"></path>
                <path d="M26.025641,81.5154241 C28.6676923,82.1273207 31.7270513,82.4828034 35,82.4828034 C44.9126282,82.4828034 52.9487179,79.2713552 52.9487179,75.3103897" id="Stroke-13"></path>
                <path d="M52.9487179,84.2758621 C52.9487179,88.2372759 44.9126282,91.4482759 35,91.4482759 C31.7270513,91.4482759 28.6676923,91.0927931 26.025641,90.4808966" id="Stroke-15"></path>
            </g>
        </g>
    </g>
</svg>