<?xml version="1.0" encoding="UTF-8"?>
<svg width="102px" height="101px" viewBox="0 0 102 101" version="1.1" xmlns="http://www.w3.org/2000/svg" xmlns:xlink="http://www.w3.org/1999/xlink">
    <title>Group 13@3x</title>
    <g id="Page-1" stroke="none" stroke-width="1" fill="none" fill-rule="evenodd" stroke-linecap="round" stroke-linejoin="round">
        <g id="Transcend-II" transform="translate(-844.000000, -2942.000000)" stroke="#02E2D1" stroke-width="3.6">
            <g id="Group-13" transform="translate(846.000000, 2944.000000)">
                <path d="M18.6570264,73.5898035 L16.0587638,78.0873706 C12.5947136,84.0839768 16.9250013,91.5800719 23.8531017,91.5800719 L42.6682311,91.5800719 L42.6682311,73.5898035 L30.0684123,73.5898035" id="Stroke-1"></path>
                <path d="M18.6447866,73.592547 L26.6474715,59.7553321 L31.3242542,62.4538724 L27.8534542,39.6777429 L6.38291296,48.0616577 L11.0596957,50.7601979 L11.0758955,50.7705423 L1.44423399,67.4637123 C-1.52302333,72.6107281 0.22745149,79.1861712 5.36187764,82.1779528 L18.4935888,89.8305632" id="Stroke-3"></path>
                <path d="M51.2122132,17.2270573 L48.6144006,12.7294902 C45.1503504,6.73288404 36.4897749,6.73288404 33.0257248,12.7294902 L23.6181601,29.0151807 L39.2063859,38.0103148 L45.5062953,27.1046142" id="Stroke-5"></path>
                <path d="M51.2159481,17.2151388 L59.2042332,31.0608991 L54.5274505,33.7594393 L75.9979917,42.1433541 L79.4687918,19.3672246 L74.792459,22.0657649 L74.7753593,22.07476 L65.1265981,5.3910349 C62.1507909,0.249416209 55.5777354,-1.52307498 50.4181096,1.42508025 L37.2215994,8.96525147" id="Stroke-7"></path>
                <path d="M83.7904396,73.6120215 L88.9865149,73.6120215 C95.9146152,73.6120215 100.244903,66.1159264 96.7808528,60.1193202 L87.3732881,43.8336298 L71.7850623,52.828764 L78.0849717,63.7344646" id="Stroke-9"></path>
                <path d="M83.7988995,73.6211965 L67.8079295,73.6126511 L67.8079295,68.2155706 L49.8081884,82.6077853 L67.8079295,97 L67.8079295,91.6029195 L67.8083795,91.58358 L87.0888022,91.5736853 C93.0318667,91.568738 97.8539973,86.7657861 97.879647,80.8258492 L97.944446,65.6330676" id="Stroke-11"></path>
            </g>
        </g>
    </g>
</svg>